<svg xmlns="http://www.w3.org/2000/svg" version="1.1" xmlns:xlink="http://www.w3.org/1999/xlink" xmlns:svgjs="http://svgjs.com/svgjs" width="24" height="24"><svg xmlns="http://www.w3.org/2000/svg" xmlns:xlink="http://www.w3.org/1999/xlink" viewBox="0 0 24 24" version="1.1">
<g id="SvgjsG1000">
<path style=" stroke:none;fill-rule:nonzero;fill:rgb(0%,0%,0%);fill-opacity:1;" d="M 13.214844 4.421875 C 12 5.050781 11.085938 5.730469 10.109375 6.738281 C 8.882812 8.003906 8.085938 9.25 7.457031 10.863281 L 7.164062 11.621094 L 7.542969 12.222656 L 7.925781 12.832031 L 8.261719 12.222656 C 9.453125 10.109375 11.964844 7.890625 14.433594 6.773438 C 14.742188 6.628906 15 6.472656 15 6.414062 C 15 6.332031 14.128906 4.070312 14.078125 3.996094 C 14.066406 3.988281 13.675781 4.171875 13.214844 4.421875 Z M 13.214844 4.421875 "></path>
<path style=" stroke:none;fill-rule:nonzero;fill:rgb(0%,0%,0%);fill-opacity:1;" d="M 12.738281 7.9375 C 12.445312 8.140625 12.203125 8.335938 12.203125 8.390625 C 12.203125 8.4375 12.445312 8.640625 12.738281 8.84375 C 14.519531 10.089844 16.164062 12.121094 17.289062 14.492188 C 17.566406 15.074219 17.804688 15.574219 17.8125 15.589844 C 17.859375 15.675781 20.148438 14.640625 20.148438 14.527344 C 20.148438 14.335938 19.4375 12.949219 18.949219 12.195312 C 18.160156 10.964844 16.714844 9.507812 15.488281 8.703125 C 15.089844 8.4375 13.382812 7.558594 13.304688 7.578125 C 13.285156 7.578125 13.03125 7.746094 12.738281 7.9375 Z M 12.738281 7.9375 "></path>
<path style=" stroke:none;fill-rule:nonzero;fill:rgb(0%,0%,0%);fill-opacity:1;" d="M 4.6875 10.078125 L 3.566406 10.550781 L 3.78125 11.066406 C 4.890625 13.679688 7.226562 16.109375 9.71875 17.242188 C 11.140625 17.890625 11.09375 17.878906 11.742188 17.484375 L 12.300781 17.132812 L 11.636719 16.707031 C 9.410156 15.3125 7.480469 13.015625 6.300781 10.3125 C 6.132812 9.921875 5.957031 9.609375 5.902344 9.609375 C 5.859375 9.609375 5.308594 9.820312 4.6875 10.078125 Z M 4.6875 10.078125 "></path>
<path style=" stroke:none;fill-rule:nonzero;fill:rgb(0%,0%,0%);fill-opacity:1;" d="M 11.777344 11.390625 C 11.324219 11.566406 11.105469 11.777344 10.898438 12.269531 C 10.632812 12.875 10.738281 13.402344 11.21875 13.902344 C 11.859375 14.566406 12.640625 14.566406 13.277344 13.902344 C 13.757812 13.402344 13.863281 12.875 13.597656 12.269531 C 13.507812 12.046875 13.347656 11.789062 13.242188 11.695312 C 13.046875 11.511719 12.480469 11.269531 12.25 11.269531 C 12.175781 11.269531 11.964844 11.324219 11.777344 11.390625 Z M 11.777344 11.390625 "></path>
<path style=" stroke:none;fill-rule:nonzero;fill:rgb(0%,0%,0%);fill-opacity:1;" d="M 16.019531 13.828125 C 15.46875 14.640625 13.890625 16.226562 12.957031 16.921875 C 12.496094 17.261719 11.601562 17.816406 10.960938 18.148438 C 10.332031 18.480469 9.808594 18.785156 9.808594 18.820312 C 9.808594 18.914062 10.660156 21.082031 10.730469 21.15625 C 10.828125 21.269531 12.019531 20.640625 12.957031 19.984375 C 14.707031 18.765625 16.066406 17.160156 17.03125 15.167969 L 17.21875 14.769531 L 16.855469 14.105469 C 16.660156 13.734375 16.464844 13.402344 16.4375 13.367188 C 16.402344 13.328125 16.214844 13.542969 16.019531 13.828125 Z M 16.019531 13.828125 "></path>
</g>
</svg><style>@media (prefers-color-scheme: light) { :root { filter: none; } }
@media (prefers-color-scheme: dark) { :root { filter: contrast(0.425531914893617) brightness(4); } }
</style></svg>