
<svg version="1.0" xmlns="http://www.w3.org/2000/svg"
 width="216.000000pt" height="174.000000pt" viewBox="0 0 216.000000 174.000000"
 preserveAspectRatio="xMidYMid meet">

<g transform="translate(0.000000,174.000000) scale(0.100000,-0.100000)"
fill="#000000" stroke="none">
<path d="M950 1541 c-25 -5 -72 -19 -105 -31 -483 -182 -620 -783 -260 -1146
90 -91 174 -143 293 -182 109 -35 284 -37 392 -3 126 38 206 87 301 181 148
147 217 320 206 524 -9 184 -75 333 -203 460 -84 84 -156 129 -267 169 -68 24
-101 29 -197 32 -63 2 -135 0 -160 -4z m248 -46 c2 -2 -7 -37 -20 -77 l-25
-73 -70 -3 -71 -3 -25 76 c-28 81 -28 80 28 89 31 4 177 -3 183 -9z m-255 -90
l25 -74 -21 -7 c-12 -4 -44 -17 -71 -30 -28 -13 -51 -24 -52 -24 -9 0 -72 146
-65 153 12 12 123 56 143 57 11 0 23 -22 41 -75z m380 55 c95 -36 95 -35 53
-118 l-36 -71 -52 24 c-29 14 -58 25 -65 25 -6 0 -15 4 -18 10 -9 15 37 150
52 150 7 0 36 -9 66 -20z m-574 -143 c17 -35 31 -66 31 -70 0 -4 -21 -27 -47
-53 l-46 -47 -74 37 -74 37 20 28 c30 42 141 142 151 136 5 -3 22 -34 39 -68z
m795 -5 c88 -90 88 -86 5 -128 l-72 -36 -49 50 -50 49 36 72 c43 84 41 84 130
-7z m-322 -38 c63 -20 157 -82 196 -130 52 -62 93 -155 105 -237 18 -126 -23
-252 -115 -353 -215 -235 -596 -175 -731 116 -42 90 -50 224 -17 319 79 234
326 360 562 285z m-631 -130 c42 -21 69 -40 66 -47 -3 -7 -16 -37 -28 -67 -13
-30 -25 -57 -26 -59 -4 -6 -153 42 -153 50 0 22 58 159 68 159 1 0 34 -16 73
-36z m1090 -29 c42 -94 41 -97 -42 -124 -39 -12 -73 -20 -76 -17 -4 3 -19 35
-34 71 l-27 66 66 34 c37 19 71 34 75 35 5 0 21 -29 38 -65z m-1161 -170 c30
-9 58 -20 62 -24 4 -3 8 -35 9 -71 l3 -65 -75 -26 c-41 -15 -77 -25 -81 -22
-10 5 -10 217 -1 227 4 3 12 5 17 3 6 -2 36 -12 66 -22z m1216 -31 c7 -56 1
-155 -10 -173 -4 -6 -37 1 -82 17 l-75 27 3 69 3 69 65 23 c36 12 70 23 77 23
7 1 14 -22 19 -55z m-1109 -241 c13 -32 26 -63 29 -69 5 -12 -107 -74 -133
-74 -14 0 -56 81 -68 131 -6 26 -4 28 67 52 40 13 75 23 77 21 2 -2 15 -30 28
-61z m1080 -12 c-3 -14 -17 -52 -31 -83 l-26 -57 -71 34 c-84 40 -85 41 -72
57 9 12 18 34 42 100 l10 27 77 -26 c72 -24 76 -27 71 -52z m-967 -156 l44
-45 -34 -70 c-19 -38 -40 -70 -47 -70 -18 0 -153 135 -153 153 0 12 112 76
135 77 6 0 31 -20 55 -45z m815 13 c36 -18 65 -36 65 -40 0 -15 -147 -158
-162 -158 -8 0 -29 31 -48 69 l-33 69 44 46 c24 25 50 45 56 45 7 1 42 -13 78
-31z m-679 -109 c27 -11 59 -24 71 -29 l22 -9 -25 -76 c-25 -72 -27 -75 -52
-69 -37 9 -92 32 -120 50 l-22 14 35 70 c19 39 37 70 39 70 2 0 25 -9 52 -21z
m499 -49 c19 -38 35 -71 35 -73 0 -6 -111 -55 -140 -62 -24 -6 -27 -2 -49 70
-13 41 -22 76 -20 78 7 6 124 55 131 56 4 1 24 -30 43 -69z m-226 -6 c5 -5 18
-38 30 -73 16 -51 18 -67 8 -73 -14 -9 -188 -11 -210 -2 -13 5 -12 15 8 75 13
38 26 72 28 76 7 11 126 8 136 -3z"/>
<path d="M1047 1453 c-27 -26 24 -54 62 -34 30 16 16 41 -23 41 -18 0 -36 -3
-39 -7z"/>
<path d="M652 1277 c-27 -28 -28 -47 -4 -47 23 0 66 45 57 59 -10 17 -30 13
-53 -12z"/>
<path d="M1460 1282 c0 -23 30 -52 53 -52 23 0 22 33 -1 53 -25 23 -52 22 -52
-1z"/>
<path d="M980 1234 c-151 -41 -268 -172 -289 -324 -8 -63 -2 -86 22 -77 9 3
16 25 20 59 8 79 40 143 105 207 60 61 141 101 205 101 41 0 62 13 54 34 -8
20 -43 20 -117 0z"/>
<path d="M1014 1091 c-69 -45 -104 -81 -133 -135 -61 -116 -19 -225 89 -229
40 -2 41 -2 38 -37 -2 -25 -9 -38 -25 -45 -13 -5 -23 -18 -23 -28 0 -16 10
-17 123 -15 91 2 122 6 122 16 0 7 -11 18 -25 25 -18 9 -26 22 -28 45 -3 29
-1 32 23 32 35 0 86 23 109 48 45 51 27 166 -38 240 -36 41 -142 122 -161 122
-6 0 -38 -17 -71 -39z m129 -50 c67 -50 82 -67 108 -125 40 -92 5 -151 -88
-144 l-48 3 -3 -67 c-3 -66 -4 -68 -30 -68 -27 0 -27 1 -27 67 l0 68 -57 -3
c-72 -5 -98 17 -98 81 0 65 36 124 109 180 34 26 67 47 72 47 5 0 33 -17 62
-39z"/>
<path d="M1436 848 c-19 -101 -29 -135 -52 -173 -52 -89 -155 -157 -264 -172
-42 -6 -56 -13 -58 -27 -4 -17 2 -18 61 -14 177 11 344 180 350 354 2 38 -1
49 -15 52 -12 2 -19 -4 -22 -20z"/>
<path d="M482 888 c-26 -26 -7 -86 23 -75 12 5 15 17 13 44 -3 39 -16 51 -36
31z"/>
<path d="M1652 888 c-26 -26 -7 -86 23 -75 12 5 15 17 13 44 -3 39 -16 51 -36
31z"/>
<path d="M633 464 c-6 -16 33 -64 53 -64 24 0 22 28 -5 54 -31 30 -39 32 -48
10z"/>
<path d="M1482 457 c-24 -26 -29 -57 -9 -57 21 0 60 47 54 64 -9 22 -20 20
-45 -7z"/>
<path d="M1040 271 c0 -24 44 -39 69 -24 30 19 18 38 -26 41 -38 3 -43 1 -43
-17z"/>
</g>
</svg>
